<svg fill="none" height="40" viewBox="0 0 157 40" width="157" xmlns="http://www.w3.org/2000/svg" xmlns:xlink="http://www.w3.org/1999/xlink"><clipPath id="a"><path d="m0 0h157v40h-157z"/></clipPath><g clip-path="url(#a)"><path d="m135.187 39.4183h9.5v-18.3236c.884-2.7648 5.028-5.3505 11.005-4.0576v-8.97936c-4.969 0-9.243 3.20006-11.005 8.30086v-7.68646h-9.5zm-15.47-24.6533c2.894 0 4.341 1.536 4.341 3.0145 0 2.1504-1.761 4.3072-11.576 5.408 0-5.0432 3.274-8.4225 7.235-8.4225zm12.137 21.8245v-8.1794c-3.141 2.5857-7.359 4.0001-10.756 4.0001-3.523 0-6.35-1.8432-7.738-4.7937 12.452-.8576 18.554-5.0434 18.554-10.9443 0-4.736-4.969-8.72967-11.889-8.72967-9.186 0-16.604 6.57927-16.604 16.17317 0 9.0369 7.608 15.7378 17.173 15.7378 4.092-.0064 8.243-1.1712 11.26-3.264zm-35.3464-6.7009v-15.1236h6.4754v-6.02245l-6.4754.064v-7.37933l-17.9913 12.42258v-10.82255l-15.0318 11.06575v.6784h5.6632v16.8452c0 5.3505 4.0264 8.1793 9.4996 8.1793 2.3896 0 4.4062-.4288 6.2262-1.472v-6.3361c-.8838.4928-1.951.864-3.1425.864-2.01 0-3.208-.9856-3.208-2.7072v-15.3732h8.6158v16.7876c0 5.4081 4.0264 8.2369 9.5586 8.2369 2.4552 0 4.4646-.3072 6.4156-1.472v-6.3937c-.818.4928-2.075.9216-3.332.9216-2.0164-.0128-3.2734-1.056-3.2734-2.9632zm-45.8487-15.1236c2.8938 0 4.3407 1.536 4.3407 3.0145 0 2.1504-1.7612 4.3072-11.5751 5.408 0-5.0432 3.2669-8.4225 7.2344-8.4225zm12.1381 21.8245v-8.1794c-3.1425 2.5857-7.3588 4.0001-10.7566 4.0001-3.5223 0-6.3507-1.8432-7.7387-4.7937 12.4525-.8576 18.5543-5.0434 18.5543-10.9443 0-4.736-4.9692-8.72967-11.8894-8.72967-9.1854 0-16.6032 6.57927-16.6032 16.17317 0 9.0369 7.6077 15.7378 17.1728 15.7378 4.0919-.0064 8.2427-1.1712 11.2608-3.264zm-45.6652-13.7092c2.9527 0 5.4078 1.7858 5.4078 4.7938 0 2.8289-2.4551 4.5505-5.4078 4.5505h-7.16904v-9.3443zm-.5042-15.73779c2.8283 0 5.0936 1.72164 5.0936 4.36489 0 2.8288-2.2653 4.5504-5.0936 4.5504h-6.66484v-8.91529zm-16.413306-7.13611341v39.41190341h18.992806c7.2934 0 13.0221-4.3649 13.0221-11.0082 0-4.2432-2.7694-7.6226-6.7958-9.2226 3.6466-1.6 6.1017-4.7361 6.1017-8.4865 0-6.45773-5.7875-10.701-13.1464-10.701h-18.174406z" fill="#292b29"/></g></svg>