<svg fill="none" height="40" viewBox="0 0 188 40" width="188" xmlns="http://www.w3.org/2000/svg"><path d="m49.6 38h-8.8v-18.5333h8.6667c3.7333 0 6.1333 1.8666 6.1333 4.8 0 2.1333-1.0667 3.2-2.4 4 2.1333.8 3.4667 2 3.4667 4.5333-.1334 3.4667-2.9334 5.2-7.0667 5.2zm1.8667-13.0667c0-1.2-.9334-1.8666-2.6667-1.8666h-4v3.8666h3.7333c1.7334 0 2.9334-.5333 2.9334-2zm1.0666 7.3334c0-1.2-.9333-2-3.0666-2h-4.6667v4.1333h4.8c1.7333 0 2.9333-.6667 2.9333-2.1333zm35.0667 5.7333-1.7333-4.1333h-7.8667l-1.7333 4.1333h-4l8-18.6667h3.7333l8 18.6667zm-5.6-13.8667-2.4 6h4.9333zm19.2 14.1334c-5.4667 0-9.4667-4.2667-9.4667-9.6 0-5.3334 4-9.6 9.7337-9.6 3.466 0 5.6 1.2 7.333 2.8l-2.533 2.9333c-1.467-1.3333-2.934-2.1333-4.8-2.1333-3.067 0-5.3337 2.5333-5.3337 5.7333s2.1334 5.8667 5.3337 5.8667c2.133 0 3.466-.8 4.933-2.1334l2.533 2.6667c-2 2.2667-4.133 3.4667-7.733 3.4667zm22-.2667-5.733-7.8667-2.134 2.2667v5.7333h-4.133v-18.6666h4.133v8.1333l7.467-8.1333h4.933l-7.6 7.8666 7.867 10.6667zm6.933 0v-18.5333h4.134v14.8h9.2v3.7333zm15.734 0v-18.5333h4.133v18.5333zm20.266 0-8.933-11.7333v11.7333h-4v-18.5333h3.733l8.667 11.4666v-11.4666h4v18.5333zm6.667 0v-18.5333h14v3.6h-10v3.7333h8.8v3.6h-8.8v3.8667h10.133v3.6h-14.133zm-101.0667-3.7333h-9.2v-14.8h-4v18.5333h11.4667zm-39.2-16.1334.5334-2.2666h-1.2v-6.53337h.6666l.5334-2.4h-1.2v-5.73333h-31.600037v37.8667h31.600037v-10.4h.6666l.5334-2.4h-1.2v-8.1334z" fill="#000"/><path d="m33.0667 2.93333v-2.93333h-31.60003v11.6c3.6 3.0667 6.93334 6.2667 10.13333 9.7333 6.4-6.9333 13.6-13.06663 21.4667-18.39997zm0 17.86667v-4.9333c-5.0667 4.4-9.7334 9.4666-13.8667 14.8.8 1.2 1.7333 2.2666 2.5333 3.4666 3.3334-4.8 7.2-9.2 11.3334-13.3333zm-18.9334 3.6c.8 1.0667 1.7334 2 2.5334 3.0667 4.9333-6 10.4-11.4667 16.4-16.1334v-4.39997c-6.9334 5.06667-13.3334 10.93337-18.9334 17.46667zm0 6.2667c-.8-1.0667-1.7333-2.2667-2.5333-3.3334-.9333 1.0667-1.73333 2.1334-2.53333 3.3334.93333 1.2 1.73333 2.2666 2.53333 3.4666.8-1.0666 1.6-2.2666 2.5333-3.4666zm2.5334 3.6c-.8 1.2-1.7334 2.4-2.5334 3.7333h4.9334c-.8-1.3333-1.6-2.5333-2.4-3.7333zm-10.13336 0c-.8 1.2-1.6 2.4-2.4 3.7333h4.93333c-.8-1.3333-1.73333-2.5333-2.53333-3.7333zm17.59996 3.6h8.9334v-11.7334c-3.2 3.7334-6.2667 7.6-8.9334 11.7334zm-22.66663-3.7334c.8-1.2 1.6-2.2666 2.4-3.4666-.8-1.0667-1.6-2.1334-2.4-3.0667zm4.93334-6.6666c.8-1.0667 1.73333-2.1334 2.53333-3.0667-2.4-2.8-4.93333-5.3333-7.46667-7.8667v5.3334c1.73334 1.7333 3.33334 3.6 4.93334 5.6z" fill="#fab833"/></svg>