<svg fill="none" height="40" viewBox="0 0 166 40" width="166" xmlns="http://www.w3.org/2000/svg" xmlns:xlink="http://www.w3.org/1999/xlink"><linearGradient id="a" gradientUnits="userSpaceOnUse" x1="-14.2857" x2="20" y1="20" y2="54.2857"><stop offset="0" stop-color="#4166e8"/><stop offset="1" stop-color="#1f36cc"/></linearGradient><path clip-rule="evenodd" d="m7.6714 2.85714c-1.27683 0-2.50136.50722-3.40421 1.41007-.90286.90286-1.41007 2.12739-1.41007 3.40422v24.65717c0 1.2768.50721 2.5013 1.41007 3.4042.90285.9028 2.12738 1.4101 3.40421 1.4101h24.6571c1.2769 0 2.5014-.5073 3.4043-1.4101.9028-.9029 1.41-2.1274 1.41-3.4042v-24.65717c0-1.27683-.5072-2.50136-1.41-3.40422-.9029-.90285-2.1274-1.41007-3.4043-1.41007zm3.0286 13.67716c0 .387-.1538.7582-.4274 1.0319-.27371.2736-.64489.4274-1.03191.4274-.38703 0-.7582-.1538-1.03187-.4274-.27367-.2737-.42742-.6449-.42742-1.0319 0-.3869.15367-.7578.42721-1.0314.27353-.2735.64453-.4272 1.03136-.4272.38684 0 .75783.1537 1.03133.4272.2736.2736.4272.6445.4272 1.0314zm2.5528 4.7428c.3871 0 .7582-.1537 1.0319-.4274.2737-.2736.4274-.6448.4274-1.0318 0-.3871-.1537-.7582-.4274-1.0319s-.6448-.4274-1.0319-.4274c-.387 0-.7582.1537-1.0318.4274-.2737.2737-.4275.6448-.4275 1.0319 0 .387.1538.7582.4275 1.0318.2736.2737.6448.4274 1.0318.4274zm4.7415 2.5529c0 .387-.1538.7582-.4275 1.0319-.2736.2736-.6448.4274-1.0318.4274-.3871 0-.7582-.1538-1.0319-.4274-.2737-.2737-.4274-.6449-.4274-1.0319s.1537-.7582.4274-1.0319c.2737-.2736.6448-.4274 1.0319-.4274.387 0 .7582.1538 1.0318.4274.2737.2737.4275.6449.4275 1.0319zm1.0942 5.6529c.3869 0 .7579-.1537 1.0314-.4272.2735-.2736.4272-.6446.4272-1.0314 0-.3869-.1537-.7578-.4272-1.0314-.2735-.2735-.6445-.4272-1.0314-.4272-.3868 0-.7578.1537-1.0313.4272-.2736.2736-.4272.6445-.4272 1.0314 0 .3868.1536.7578.4272 1.0314.2735.2735.6445.4272 1.0313.4272zm4.5586-5.6529c0-.387-.1537-.7582-.4274-1.0319-.2737-.2736-.6448-.4274-1.0319-.4274-.387 0-.7582.1538-1.0318.4274-.2737.2737-.4275.6449-.4275 1.0319s.1538.7582.4275 1.0319c.2736.2736.6448.4274 1.0318.4274.3871 0 .7582-.1538 1.0319-.4274.2737-.2737.4274-.6449.4274-1.0319zm1.0943-5.4714c.387 0 .7582.1537 1.0319.4274.2736.2737.4274.6448.4274 1.0319 0 .387-.1538.7582-.4274 1.0318-.2737.2737-.6449.4274-1.0319.4274s-.7582-.1537-1.0319-.4274c-.2736-.2736-.4274-.6448-.4274-1.0318 0-.3871.1538-.7582.4274-1.0319.2737-.2737.6449-.4274 1.0319-.4274zm9.3-4.8329c0-1.0881-.4323-2.1317-1.2017-2.9011-.7694-.76948-1.813-1.20174-2.9012-1.20174-1.0881 0-2.1317.43226-2.9011 1.20174-.7694.7694-1.2017 1.813-1.2017 2.9011 0 1.0883.4323 2.1321 1.2019 2.9017.7696.7695 1.8133 1.2019 2.9017 1.2019 1.0883 0 2.1321-.4324 2.9016-1.2019.7696-.7696 1.2019-1.8134 1.2019-2.9017z" fill="url(#a)" fill-rule="evenodd"/><path d="m45.93 7.14286h9.4043c1.1057 0 2.1029.14571 2.9914.43571.8493.29122 1.6328.74706 2.3057 1.34143 1.2972 1.2086 1.9458 2.8286 1.9458 4.86 0 2.5386-1.1043 4.2314-3.3143 5.0771 1.4171.3386 2.5343 1.1 3.3514 2.2858.8886 1.2571 1.3329 2.5014 1.3329 3.7342 0 1.04-.18 2.0072-.54 2.9015-.3557.9-.8959 1.7156-1.5858 2.3943-1.37 1.4028-3.2914 2.1028-5.7657 2.1028h-10.3414v-25.13284zm9.1529 3.62714h-5.4043v6.6371h5.5857c.3114 0 .6-.0371.8629-.11.5588-.1347 1.0623-.4391 1.4414-.8714.3128-.3371.5414-.7114.6857-1.1228.1671-.4115.2514-.8572.2514-1.3429 0-.5071-.0843-.9543-.2514-1.3414-.1443-.3857-.3729-.7129-.6857-.9786-.3036-.2996-.6737-.5233-1.08-.6529-.4528-.152-.9282-.2254-1.4057-.2171zm4.7571 14.0714c0-.9914-.3857-1.9214-1.1543-2.7928-.6957-.8215-1.6457-1.2329-2.8457-1.2329h-6.1614v7.8343h6.2686c.5285 0 1.0214-.0971 1.4785-.29.4806-.194.9202-.4771 1.2957-.8343.3858-.3871.6615-.81.8286-1.27.1929-.4357.2886-.9071.2886-1.4143zm11.6743 1.7043c.24.4114.54.7857.9 1.1243.9857.9671 2.21 1.4514 3.6757 1.4514s2.69-.4843 3.6757-1.4514c1.0329-1.0143 1.5486-2.3214 1.5486-3.9171.004-.4774-.0566-.9532-.18-1.4143-.1774-.891-.6314-1.7033-1.2971-2.3215-1.0138-.951-2.3574-1.4709-3.7472-1.45-1.4414 0-2.6786.4715-3.7114 1.4143-1.0086 1.0157-1.5143 2.2729-1.5143 3.7715 0 .5328.0486 1.04.1457 1.5242.12.4586.2872.8815.5043 1.2686zm-4.4329-2.7928c0-2.6586.8529-4.8115 2.5586-6.4543 1.7543-1.6686 3.9043-2.5029 6.45-2.5029s4.6843.8214 6.4143 2.4657c1.7529 1.6929 2.63 3.8572 2.63 6.4915 0 2.6857-.8886 4.8857-2.6671 6.6-1.7772 1.6942-3.9143 2.5285-6.4143 2.5042-2.4972 0-4.6229-.8342-6.3772-2.5028-.8464-.8187-1.5095-1.8076-1.9457-2.9014-.4314-1.1129-.6486-2.3458-.6486-3.7zm25.4758 3.41c.2885.6285.6971 1.1114 1.2242 1.45.5529.3142 1.19.4714 1.91.4714 1.2972 0 2.3672-.3743 3.2072-1.1243.8171-.7486 1.2254-1.8729 1.2254-3.3714v-9.4315h3.819v17.3h-3.819v-2.3928l-.9811 1.2214c-.1429.1929-.7486.6529-1.1815.8457-.3114.12-.6357.2429-.9714.3629-.1169.0473-.2378.0836-.3614.1086-.1075.0264-.2156.0502-.3243.0714-.1075.0273-.2156.0521-.3243.0743-.1185.0238-.2391.0357-.36.0357-.1062.0251-.2151.0371-.3243.0357h-.3243c-2.1857 0-3.8557-.6771-5.0085-2.03-1.1286-1.33-1.6943-3.2043-1.6943-5.6229v-10.0085h3.8557v9.7557c0 .8714.1443 1.62.4329 2.2486zm26.4488-7.4343c-.324-.3784-.732-.6766-1.19-.8715-.48-.198-.995-.2967-1.515-.29-.864 0-1.62.1572-2.268.4715-.649.3143-1.166.8214-1.55 1.5228-.167.3629-.3.7629-.396 1.1972-.096.4357-.144.9185-.144 1.4514v9.32h-3.857v-17.3714h3.857v2.5028c.216-.46.578-.8943.914-1.2328.336-.3386.672-.5929 1.176-.8357.478-.256.987-.4508 1.514-.58.529-.1443 1.069-.2172 1.62-.2172 2.163 0 3.809.6643 4.937 1.9943 1.129 1.3057 1.693 3.18 1.693 5.6214v10.1186h-3.818v-9.6829c0-.4357-.038-.8471-.109-1.2328-.064-.3629-.173-.7166-.324-1.0529-.137-.3036-.319-.5849-.54-.8343zm8.394 4.0243c0-2.6586.89-4.8229 2.667-6.4915 1.85-1.6685 4.036-2.49 6.557-2.4657 2.787 0 5.01.93 6.667 2.7929l.18.1814-.18.18-2.594 2.14-.18.1086-.144-.1443c-.986-1.0143-2.234-1.5229-3.747-1.5229-1.412-.0207-2.778.4979-3.82 1.45-1.082.9915-1.622 2.2486-1.622 3.7715 0 1.5957.54 2.9014 1.622 3.9171 1.032.9725 2.402 1.5058 3.82 1.4871.384 0 .743-.0242 1.08-.0714.361-.0728.697-.1714 1.01-.2914.311-.1443.6-.3143.864-.5072.264-.1942.529-.4228.793-.6885l.143-.1457.145.1085 2.666 2.0672.18.1814-.18.1814c-1.681 1.91-3.914 2.8657-6.701 2.8657-2.475 0-4.649-.8342-6.523-2.5028-1.8-1.6929-2.702-3.8929-2.702-6.6zm26.773-8.9572c2.523-.0243 4.6.7972 6.234 2.4657 1.633 1.6443 2.45 3.8086 2.45 6.4915 0 .17-.011.3385-.036.5085v.3257c0 .0486-.012.0858-.035.11v.47h-13.693c.168 1.3072.733 2.3458 1.693 3.12.985.7972 2.174 1.1972 3.567 1.1972.961 0 1.85-.2057 2.667-.6172.84-.3857 1.477-.9428 1.91-1.6685l.107-.1815.18.1086 2.739 1.1972.253.0728-.145.2543c-.38.6474-.839 1.2445-1.368 1.7771-.529.5315-1.13.9786-1.803 1.3415-.705.3662-1.456.6348-2.233.7985-.814.196-1.649.2933-2.487.29-2.474 0-4.587-.8342-6.342-2.5028-1.705-1.6686-2.545-3.8686-2.522-6.6 0-2.7086.841-4.8729 2.522-6.4929 1.73-1.6685 3.843-2.49 6.342-2.4657zm-4.216 5.3672c-.24.3385-.433.7142-.576 1.1242-.149.4093-.246.8361-.288 1.27h9.981v-.0371c-.045-.4213-.142-.8353-.288-1.2329-.109-.3869-.28-.7539-.505-1.0871-.219-.3177-.473-.61-.757-.8714-.888-.7972-2.005-1.1972-3.351-1.1972-.456 0-.889.0486-1.297.1457-.385.0715-.769.1929-1.153.3629-.72.3629-1.309.8714-1.766 1.5229z" fill="#2d2e33"/></svg>