<svg fill="none" height="40" viewBox="0 0 153 40" width="153" xmlns="http://www.w3.org/2000/svg" xmlns:xlink="http://www.w3.org/1999/xlink"><clipPath id="a"><path d="m0 0h152.889v40h-152.889z"/></clipPath><g clip-path="url(#a)" fill="#d66b3d"><path d="m103.069 8.26625c-2.697 0-4.777.96125-6.707 2.96755v-2.50005h-5.2975v24.59995h5.7v-14.2675c0-3.2662 1.945-5.3324 4.8965-5.3324.536 0 1.006.0662 1.341.1325l3.956-5.20005c-1.542-.26625-2.884-.4-3.89-.4zm49.157.4675h-6.573l-6.069 8.02375-6.068-8.025h-6.573l9.273 12.3962-9.273 12.205h6.706l5.902-7.7824 5.901 7.7824h6.774l-9.335-12.1849zm-119.7065-5.53375c-1.945 2.6-2.415 3.46625-4.2925 3.46625h-28.032542v33.33375h10.998742c2.4813 0 4.895-1.2 6.4375-3.2 2.0125-2.6662 2.28-3.4663 4.225-3.4663h28.1v-33.3337h-11.0662c-2.4813 0-4.895 1.2-6.3713 3.2zm8.7175 21.5338h-11.7363c-2.5487 0-4.895 1.0662-6.4375 3.1324-2.0125 2.6675-2.415 3.4675-4.2925 3.4675h-9.92499v-16h11.73629c2.5475 0 4.895-1.2 6.4375-3.2 2.0125-2.59995 2.5487-3.39995 4.3587-3.39995h9.8588zm42.115-8.2c2.4825-1.4001 4.225-3.8675 4.225-7.1338 0-4.8-3.6875-9.4-9.0525-9.4h-16.095v33.3337h16.095c5.8337 0 9.8575-4.1337 9.8575-9.3337 0-3.0662-1.4075-5.7337-5.03-7.4662zm-15.2225-11.3338h9.925c2.4812 0 3.9562 2.33375 3.9562 4.4 0 2.5337-2.2125 4.2663-4.2912 4.2663h-9.59zm9.59 22.9338h-9.59v-9.0676h9.925c2.5487 0 4.6275 2.2 4.6275 4.4675 0 2.5325-2.615 4.6001-4.9625 4.6001z"/><path d="m121.243 26.2663c-.939 1.4675-2.75 2.3337-4.762 2.3337-3.15 0-5.767-2.1338-5.767-5.4h17.034c.269-1 .335-1.4662.335-2.3337 0-7.4663-4.627-12.60005-11.601-12.60005-6.841 0-11.669 4.86755-11.669 12.80005 0 7.7337 4.626 12.7337 11.803 12.7337 5.03 0 9.456-2.4662 10.73-7.5337zm-4.762-12.8c3.152 0 5.567 2 5.5 5h-11.2c0-2.9325 2.55-5 5.7-5z"/></g></svg>