<svg fill="none" height="40" viewBox="0 0 194 40" width="194" xmlns="http://www.w3.org/2000/svg" xmlns:xlink="http://www.w3.org/1999/xlink"><clipPath id="a"><path d="m0 0h194v40h-194z"/></clipPath><g clip-path="url(#a)" clip-rule="evenodd" fill-rule="evenodd"><g fill="#030708"><path d="m187.451 25.812c0 4.597-1.375 6.6472-4.456 6.6472-3.034 0-4.386-2.0502-4.386-6.6472v-11.6648c0-4.59751 1.352-6.64757 4.386-6.64757 3.123 0 4.456 1.98881 4.456 6.64757zm-4.386-23.89647c-3.296 0-6.032.95708-7.913 2.76856-2.037 2.11039-2.692 4.51416-2.692 9.88641v10.8181c0 5.3736.655 7.7775 2.697 9.8912 1.876 1.8068 4.612 2.7635 7.908 2.7635 3.249 0 5.959-.9567 7.842-2.7686 2.062-2.0622 2.692-4.3719 2.692-9.8861v-10.8181c0-5.51226-.63-7.82254-2.695-9.88965-1.88-1.80824-4.59-2.76532-7.839-2.76532z"/><path d="m60.3792 1.91553c-3.9403 0-6.9373 1.24173-8.6659 3.59023-1.5867 2.1371-2.1486 4.60264-2.1486 9.41804v10.1811c0 4.7644.5619 7.2114 2.1486 9.3499 1.7286 2.3485 4.7256 3.5885 8.6659 3.5885 3.5322 0 6.2856-1.0701 8.186-3.1818 1.719-1.857 2.4191-4.294 2.4191-8.413v-1.1298h-6.1494v.7765c0 4.3423-1.4148 6.364-4.4557 6.364-1.705 0-3.1237-.7569-3.7937-2.0217-.6531-1.2353-.8734-2.7956-.8734-6.179v-8.4859c0-6.26299 1.1336-8.27297 4.6671-8.27297 3.0409 0 4.4557 1.95518 4.4557 6.15247v.9884h6.1494v-1.3421c0-4.07021-.6785-6.38878-2.4173-8.26888-1.8603-2.06709-4.6137-3.11399-8.1878-3.11399z"/><path d="m151.79 13.3688c0-4.26403 1.353-6.08243 4.526-6.08243 3.063 0 4.412 1.68483 4.508 5.63753l.004.1299-.115.0617-8.923 4.8804zm8.834 15.9653c-.595 2.0753-1.997 3.1251-4.166 3.1251-2.769 0-4.021-1.2667-4.466-4.5202-.14-1.0203-.198-3.2274-.202-3.3203l-.003-.1305.115-.0612 15.09-8.1961v-.9539c0-5.35885-.665-7.92937-2.633-10.18299-1.804-2.08-4.609-3.17848-8.113-3.17848-3.249 0-5.961.95708-7.842 2.76856-2.143 2.07539-2.763 4.29263-2.763 9.88641v10.4644c0 4.5958.604 7.2377 2.152 9.4231 1.725 2.3453 4.722 3.5853 8.665 3.5853 4.423 0 7.635-1.6002 9.287-4.6253.997-1.6636 1.239-3.3559 1.314-8.0993h-6.146c-.003 2.3083-.075 3.2268-.289 4.0154z"/><path d="m129.467 1.91736-.143-.00183-.028.00183c-3.172.02994-5.678.85485-7.448 2.45352l-.144.12851-.143-.12851c-1.77-1.59867-4.275-2.42358-7.446-2.45352l-.145-.00183-.028.00183c-3.859.03684-6.796 1.27352-8.491 3.58011-1.547 2.18225-2.151 4.82413-2.151 9.41983v22.413h6.148v-21.9915c.003-.1.063-2.3066.204-3.3255.44-3.22036 1.666-4.48696 4.375-4.51552 2.713.02856 3.94 1.29516 4.38 4.51552.139 1.0202.199 3.2255.202 3.3204v21.9966h6.193v-21.9915c.003-.0982.061-2.3053.201-3.3255.441-3.22036 1.667-4.48696 4.376-4.51552 2.713.02856 3.94 1.29516 4.38 4.51552.141 1.0202.199 3.2273.202 3.3204v21.9966h6.147v-22.413c0-4.5975-.603-7.23943-2.15-9.42305-1.695-2.30337-4.632-3.54005-8.491-3.57689z"/><path d="m91.6033 26.5904c0 4.2641-1.3532 6.0824-4.5253 6.0824-3.0637 0-4.4124-1.6852-4.509-5.6376l-.0033-.1297.1148-.0619 8.9228-4.8807zm-4.6671-24.67487c-4.4239 0-7.636 1.60005-9.2877 4.62562-.9967 1.66364-1.2384 3.35536-1.3135 8.09935h6.1455c.0036-2.3084.0751-3.2268.2883-4.0153.5952-2.07544 1.9971-3.12557 4.1674-3.12557 2.7685 0 4.0204 1.26706 4.4653 4.52067.1404 1.0202.1986 3.2268.2018 3.3203l.0036.1299-.1151.0617-15.0901 8.1962v.9533c0 5.3593.6646 7.9294 2.6337 10.1831 1.8031 2.08 4.6086 3.1785 8.1127 3.1785 3.2485 0 5.9608-.9567 7.841-2.7686 2.1434-2.0754 2.7638-4.2922 2.7638-9.8861v-10.4648c0-4.5953-.6038-7.23763-2.1523-9.42265-1.7252-2.34527-4.7222-3.58562-8.6644-3.58562z"/></g><path d="m20.5907.00048495c-.822 0-1.6744.00617755-2.1148 0-2.4001-.03367815-1.8592 1.69350505-1.5394 3.07687505.4492 1.94287 1.1502 5.38432 1.5394 6.92304.1834.7248.4266 1.923 1.5383 1.923h1.1531c1.0747 0 1.3381-1.1286 1.5383-1.923.3852-1.52803 1.0983-4.99027 1.5385-6.92304.3291-1.445.786-3.07687505-1.5385-3.07687505-.3885 0-1.6147 0-2.1149 0z" fill="#50f0e5"/><path d="m6.43652 5.85234c-.58122.58122-1.17958 1.18832-1.49525 1.49525-1.72097 1.67334-.11722 2.51219 1.08711 3.26431 1.69141 1.0562 4.62062 2.9939 5.98392 3.8067.6421.3828 1.6613 1.0583 2.4475.2721.1958-.1959.687-.6871.8152-.8153.7601-.7601.1483-1.7443-.2719-2.4477-.8082-1.3527-2.7521-4.30516-3.8075-5.98311-.789-1.2545-1.61988-2.73145-3.26348-1.08785-.27472.27473-1.14176 1.14177-1.4956 1.4956z" fill="#f40c5a"/><path d="m34.713 5.86426c-.5813-.58123-1.1883-1.17958-1.4952-1.49525-1.6733-1.72098-2.5123-.11722-3.2642 1.08711-1.0563 1.6914-2.9941 4.62058-3.8069 5.98388-.3828.6422-1.0581 1.6613-.2719 2.4475.1958.1959.687.6871.8152.8153.76.76 1.7443.1482 2.4477-.272 1.3526-.8081 4.3051-2.752 5.983-3.8074 1.2545-.78906 2.7315-1.61995 1.0879-3.26354-.2748-.27473-1.1417-1.14177-1.4956-1.4956z" fill="#d438fe"/><path d="m34.7083 34.1292c.5813-.5813 1.1795-1.1883 1.4954-1.4954 1.7208-1.6734.1172-2.5121-1.0872-3.2643-1.6915-1.056-4.6206-2.9939-5.9839-3.8066-.6421-.3829-1.6613-1.0584-2.4476-.2722-.1958.1959-.6869.6872-.8151.8154-.7602.76-.1483 1.7443.2719 2.4477.8081 1.3527 2.752 4.3052 3.8074 5.9831.7891 1.2545 1.6199 2.7313 3.2635 1.0878.2748-.2747 1.1419-1.1418 1.4956-1.4955z" fill="#50f0e5"/><path d="m6.43755 34.1284c.58124.5813 1.18831 1.1797 1.49524 1.4953 1.67335 1.7209 2.51221.1172 3.26431-1.0871 1.0562-1.6914 2.9939-4.6206 3.8067-5.9839.3828-.6421 1.0583-1.6614.2721-2.4476-.1959-.1958-.6871-.6869-.8153-.8152-.7601-.76-1.7443-.1483-2.4477.272-1.3527.8082-4.30515 2.752-5.98309 3.8075-1.25452.789-2.73146 1.6199-1.08786 3.2634.27474.2748 1.14176 1.1419 1.4956 1.4956z" fill="#50f0e5"/><path d="m20.6502 39.9996c.822 0 1.6744-.0061 2.1148 0 2.4.0337 1.8592-1.6934 1.5394-3.0768-.4491-1.9429-1.1503-5.3843-1.5394-6.923-.1834-.7249-.4266-1.9231-1.5384-1.9231-.277 0-.9717 0-1.153 0-1.0747 0-1.3382 1.1287-1.5383 1.9231-.3852 1.528-1.0983 4.9902-1.5385 6.923-.3292 1.445-.786 3.0768 1.5385 3.0768z" fill="#f40c5a"/><path d="m.572506 20.0012c0 .8218.006178 1.6742 0 2.1146-.033678 2.4002 1.693504 1.8592 3.076894 1.5394 1.94285-.4491 5.3843-1.1502 6.923-1.5394.7248-.1834 1.923-.4264 1.923-1.5384 0-.277 0-.9717 0-1.153 0-1.0747-1.1285-1.3381-1.923-1.5383-1.52801-.3852-4.99025-1.0983-6.923-1.5385-1.44502-.3291-3.076894-.786-3.076894 1.5385z" fill="#d438fe"/></g></svg>