<svg fill="none" height="40" viewBox="0 0 161 40" width="161" xmlns="http://www.w3.org/2000/svg" xmlns:xlink="http://www.w3.org/1999/xlink"><clipPath id="a"><path d="m0 0h160.952v40h-160.952z"/></clipPath><g clip-path="url(#a)" fill="#f54907"><path d="m15.8129 21.7209c0 4.7477-1.4829 6.7396-3.7295 6.7396-3.00956 0-5.51051-3.4748-5.51051-9.5786 0-5.7219 2.03523-8.6876 5.08621-8.6876 1.5681 0 3.179.9319 4.1538 3.1362zm6.1462-21.657576-9.7048 2.501906v.2119l2.1186 1.18667c1.2295.67762 1.4414 1.14429 1.4414 2.71238v2.96714c-1.1443-.2119-2.2457-.29619-3.4324-.29619-6.99282.00048-12.248538 5.00097-12.248538 12.50337 0 6.4847 3.432858 10.3843 8.434758 10.3843 3.39098 0 5.89148-2.1191 7.37428-5.9758v5.5515h8.6891v-.9748h-2.6696v-30.772376zm78.1109 31.321876c-1.5681 0-3.179-.9323-4.1538-3.1366v-8.3919c0-4.7477 1.4829-6.7396 3.7296-6.7396 3.0092 0 5.5102 3.4753 5.5102 9.5786 0 5.7224-2.033 8.6895-5.086 8.6895zm-62.259-7.629c0 3.2628-.9324 5-2.8819 5-1.9072 0-3.3486-1.8224-3.3486-4.2376 0-1.9067.8481-2.9238 3.1367-3.7296l3.0938-1.0604zm65.354-14.41002c-3.3912 0-5.8912 2.11902-7.374 5.97522v-5.55141h-15.5986v.21191l3.5181 3.1795c.8476.8053 1.1443 1.4414 1.1443 2.2453 0 .5081-.0857 1.0604-.3814 1.7381l-3.6872 8.8581-6.569-15.2581h3.6443v-.97481h-11.951v-9.7052375l-8.8586 2.4999975v.21238l1.611 1.18667c.9324.67905 1.1014 1.14429 1.1014 2.71238v24.15812h-4.6619v-21.53097l-8.8586 2.49997v.2124l1.611 1.1867c.9319.679 1.1014 1.1443 1.1014 2.7124v14.9185h-5.0019v-13.9857c0-4.8314-2.2886-7.50094-9.3238-7.50094-5.6371 0-8.9 2.58574-8.9 5.59384 0 1.9923 1.4414 3.4324 3.4324 3.4324 1.9924 0 3.3909-1.4415 3.3909-3.4324 0-1.9496-1.4828-3.3057-3.4747-3.3057-.1695 0-.3391 0-.5081.0428 1.1014-.7205 2.6266-1.1871 4.2805-1.1871 3.4752 0 5.2981 1.9071 5.2981 4.8743 0 2.6266-1.2296 3.6871-3.4753 4.4923l-4.1114 1.4415c-3.5605 1.2295-4.9591 2.7552-4.9591 5.2981 0 3.2633 2.4572 5.6371 5.8062 5.6371 2.8815 0 5.1286-1.6952 6.6543-5.0009v4.5766h30.5162v-.9747h-2.67v-20.09h1.4829l10.1724 22.9714-.3815.889c-1.1443 2.7553-2.5428 3.9419-4.2809 4.1967.8895-.5505 1.399-1.5681 1.399-2.7548 0-1.9071-1.3562-3.2204-3.2219-3.2204-1.9919 0-3.4324 1.3985-3.4324 3.3057 0 2.4162 1.6953 3.73 4.2381 3.73 2.8815 0 4.7476-1.3991 6.2729-5.001l10.1295-24.1152h1.4829v27.7186h-2.67v.9747h12.6723v-.9747h-3.8561v-6.5277c1.1438.2119 2.2466.2977 3.4323.2977 6.993 0 12.248-5.001 12.248-12.5034 0-6.4862-3.432-10.38569-8.433-10.38569zm22.506 14.41002c0 3.2628-.932 5-2.882 5-1.907 0-3.348-1.8224-3.348-4.2376 0-1.9067.848-2.9238 3.136-3.7296l3.094-1.0604zm8.814 8.0528v-.9747h-2.669v-13.9872c0-4.8314-2.288-7.50092-9.324-7.50092-5.637 0-8.9 2.58572-8.9 5.59382 0 1.9924 1.441 3.4324 3.432 3.4324 1.993 0 3.392-1.4415 3.392-3.4324 0-1.9495-1.483-3.3057-3.475-3.3057-.17 0-.339 0-.509.0428 1.102-.7204 2.628-1.1871 4.281-1.1871 3.475 0 5.298 1.9071 5.298 4.8743 0 2.6266-1.23 3.6871-3.475 4.4924l-4.111 1.4414c-3.561 1.2295-4.96 2.7552-4.96 5.2981 0 3.2633 2.458 5.6371 5.806 5.6371 2.882 0 5.129-1.6952 6.655-5.0009v4.5771h8.559z"/><path d="m153.473 13.2024 2.205-3.22052v-.2119h-9.622v.2119l3.518 3.17952c.848.8052 1.145 1.4414 1.145 2.2467 0 .5081-.086.9747-.339 1.6109l-3.73 8.9857-6.569-15.2585h3.644v-.97479h-12.545v.97479h2.076l10.172 22.9714-.381.889c-1.145 2.7553-2.543 3.9419-4.281 4.1953.889-.5505 1.399-1.5681 1.399-2.7548 0-1.9071-1.356-3.2205-3.221-3.2205-1.992 0-3.432 1.3986-3.432 3.3058 0 2.4161 1.695 3.73 4.238 3.73 2.881 0 4.789-1.3991 6.273-5.001l7.417-17.7157c.889-2.1205 1.228-2.7138 2.033-3.9429zm5.486 17.6319c.499-.6685.769-1.481.768-2.3158 0-1.0289-.409-2.0157-1.137-2.7432-.727-.7276-1.714-1.1365-2.743-1.1368-1.029.0003-2.016.4092-2.743 1.1368-.728.7275-1.137 1.7143-1.137 2.7432-.001.8347.269 1.6471.768 2.3158h-1.931v.9747h10.088v-.9747zm-107.0771-23.14194c.508.01129 1.0131-.07902 1.4856-.26561.4726-.1866.9031-.46572 1.2663-.82099.3632-.35528.6518-.77953.8488-1.24786s.2984-.97129.2984-1.47936c-.0001-.50807-.1017-1.01101-.2988-1.47929s-.4857-.89246-.849-1.24764c-.3633-.355183-.7939-.634202-1.2666-.82068-.4726-.186478-.9777-.2766554-1.4856-.2652391-.9966.022399-1.9448.4340601-2.6417 1.1468591-.6969.7128-1.087 1.67009-1.0869 2.66694s.3905 1.95404 1.0875 2.66667c.6971.71262 1.6454 1.12405 2.642 1.1462z"/></g></svg>