<svg fill="none" height="60" viewBox="0 0 72 60" width="72" xmlns="http://www.w3.org/2000/svg" xmlns:xlink="http://www.w3.org/1999/xlink"><linearGradient id="a" gradientUnits="userSpaceOnUse" x1="0" x2="71.9053" y1="42.2996" y2="18.0947"><stop offset="0" stop-color="#80f"/><stop offset="1" stop-color="#02c39d"/></linearGradient><clipPath id="b"><path d="m0 0h71.9054v60h-71.9054z"/></clipPath><g clip-path="url(#b)"><path d="m71.6102 19.0642c-.4894.2474-9.9352 8.2243-14.1153 6.15-.3994-.1968-.5851-.8714-1.2039-.8714-.225 0-.7876.0506-1.2939.9107-.7426 1.2593-4.1238 5.5428-4.7595 5.273-.09-.0394-.45-.5453-.0787-2.9176.1406-.8826-.3264-1.4278-.7651-1.574-1.159-.3823-2.1153 1.1187-2.1153 1.1187-3.6625 5.1661-5.0633 5.2055-5.3165 5.0031-.2757-.2192 1.3221-4.5309 1.4459-4.9806.0843-.2586.45-1.6246-.7595-1.7314-.7595-.0675-1.2659.534-1.5865 1.1243l-.0057.0112c-.4669.7196-1.0745 1.8608-2.0927 3.6202-2.2335 3.8676-3.9831 4.7277-4.5176 4.7783-.1631.0169-.7258-.5452-1.1139-1.7595 2.7341-2.6927 7.2854-8.5672 5.0351-12.4516-.5682-.995-1.6821-1.3885-2.8917-1.0344-1.4008.4104-2.7679 1.7314-3.6061 3.699-.8946 2.1136-1.5303 5.7001-1.2377 8.7695-5.6821 4.6714-9.3389 4.1656-9.4233 4.1768.0169-.6578.0393-1.3323.0675-2.0238 3.7581-4.4354 7.4655-12.7832 9.5076-18.6971 2.1548-6.25668 2.9367-11.46222 2.1153-13.92444-.3825-1.281695-1.9183-2.79388-5.0238-.6802-1.9071 1.29857-4.1969 4.89071-6.5935 11.78274-2.4584 7.0718-3.0267 17.6908-2.9536 20.0406-.3825.3935-8.50626 10.1243-17.974512 7.3866-.905761-.2586-.208157 2.3049 3.718682 2.9457 5.53023.9051 10.54283-2.6871 14.11523-5.8463-.0956 4.5758.0225 9.9219.9733 15.088.7482 4.0476 3.0829 7.5497 5.4402 7.5497 3.0942 0 3.578-5.1268 3.3248-8.4098-.3601-4.7782-2.7904-9.5172-4.7088-12.862 2.8973-.3653 5.7215-2.0124 8.0337-3.7551.4445 1.1412 1.1308 2.0406 2.1153 2.4959 2.7342 1.1805 6.3797-3.8732 6.4022-3.9012 1.2602 1.9956 4.0394.8263 5.7777-.5959.5177-.3879 1.3109-1.2424 2.0873-2.1531.0056.0225.1181 1.9787 1.6877 2.451.8889.2698 1.8509-.0844 3.038-1.0738 1.7271-1.4053 3.9549-4.5983 4.1125-4.8794.5119.208 7.6342 2.3498 14.5259-6.0881 1.0295-1.2367 1.1083-2.4116.6132-2.1643zm-46.0644-8.8088c1.1533-2.65901 2.2503-4.36233 2.9704-5.32922.8158-1.10744 1.384-1.56278 1.6372-1.70893.0844.25858.2193 1.08494-.1632 3.33917-.3431 2.01814-1.0295 4.65458-1.9127 7.44278-2.6274 8.2918-4.9789 12.744-6.5317 15.0769.0619-1.0399.1351-2.0968.2138-3.1705.4614-6.1724 2.1547-11.8895 3.7862-15.6502zm-.8832 38.6028c1.1082 3.8619.8776 8.9944-.3151 7.8139-2.1547-2.1306-2.7454-7.6452-3.0661-12.3111-.0618-.9444-.1013-2.08-.1125-3.3673 1.5302 2.3947 2.7285 4.9188 3.4937 7.8645zm8.8325-22.1937c.6751-2.569 2.0816-4.6208 2.4472-4.5534.3601.0675.4613.6127.377 1.3211-.1012.8713-1.3615 4.1936-3.353 6.594.0337-.967.1969-2.0856.5288-3.3617z" fill="url(#a)"/></g></svg>