<svg fill="none" height="65" viewBox="0 0 48 65" width="48" xmlns="http://www.w3.org/2000/svg" xmlns:xlink="http://www.w3.org/1999/xlink"><linearGradient id="a" gradientUnits="userSpaceOnUse" x1="21.8404" x2="36.0627" y1="10.5925" y2="24.9131"><stop offset="0" stop-color="#ff0057" stop-opacity=".16"/><stop offset=".861354" stop-color="#ff0057"/></linearGradient><g fill="#001b38"><path d="m13.3692 56.5117v-1.7612h-2.4338v9.9739h1.6415c.4374 0 .7923-.3549.7923-.7924v-3.9176c0-1.9.6132-3.2262 2.1573-3.2262h1.5632v-2.0384h-1.1678c-1.2858.0007-2.0575.4951-2.5527 1.7619z"/><path d="m22.7294 54.5922c-3.0477 0-5.2241 2.1771-5.2241 5.1449 0 2.9679 2.1772 5.145 5.2241 5.145 3.0281 0 5.2045-2.1771 5.2045-5.145 0-2.9678-2.1764-5.1449-5.2045-5.1449zm0 8.1928c-1.6621 0-2.7705-1.247-2.7705-3.0479 0-1.8007 1.1084-3.0477 2.7705-3.0477 1.6424 0 2.7509 1.247 2.7509 3.0477 0 1.8009-1.1085 3.0479-2.7509 3.0479z"/><path d="m34.9597 54.5922c-1.4245 0-2.5526.6132-3.1072 1.7018v-1.5433h-2.4339v9.9738h1.6416c.4374 0 .7923-.3549.7923-.7922v-4.6499c0-1.4641.9499-2.5329 2.315-2.5329 1.247 0 2.0781.95 2.0781 2.3158v5.66h1.6416c.4373 0 .7922-.3549.7922-.7923v-5.3826c.0008-2.3357-1.4641-3.9582-3.7197-3.9582z"/><path d="m46.7145 55.997v-1.2463h-2.7705v-3.0083h-2.4337v2.3546c0 .4746-.2377.6529-.6331.6529h-1.3262v2.0385h1.9593v4.4526c0 2.2169 1.4252 3.4829 3.6015 3.4829h1.6027v-2.197h-1.3262c-.9103 0-1.445-.5142-1.445-1.5236v-4.2149h1.9782c.4381.0008.793-.3541.793-.7914z"/><path d="m1.17926 53.3848v11.3398h1.81987c.43733 0 .79225-.3549.79225-.7924v-5.026h5.30339v-2.2564h-5.30339v-2.83c0-.3827.30973-.6924.69241-.6924h5.12519c.43732 0 .79222-.3549.79222-.7923v-1.4641h-6.70887c-1.38727.0008-2.51307 1.1258-2.51307 2.5138z"/><path d="m10.8995 7.36637c0-4.02383 3.2619-7.2858036 7.2858-7.2858036h23.3635v10.3682336c0 2.0119-1.6309 3.6429-3.6429 3.6429h-9.4925c-1.9345 0-3.5028 1.5683-3.5028 3.5028v22.628c0 2.0119-1.631 3.6429-3.6429 3.6429h-10.3682z"/></g><path d="m19.0434 17.6821c0 5.2232 4.2343 9.4575 9.4576 9.4575 5.2232 0 9.4575-4.2343 9.4575-9.4575 0-5.2233-4.2343-9.45755-9.4575-9.45755-5.2233 0-9.4576 4.23425-9.4576 9.45755z" fill="url(#a)"/><path d="m19.0434 17.6821c0 5.2232 4.2343 9.4575 9.4576 9.4575 5.2232 0 9.4575-4.2343 9.4575-9.4575 0-5.2233-4.2343-9.45755-9.4575-9.45755-5.2233 0-9.4576 4.23425-9.4576 9.45755z" fill="url(#a)" opacity=".5"/></svg>