<svg fill="none" height="36" viewBox="0 0 238 36" width="238" xmlns="http://www.w3.org/2000/svg" xmlns:xlink="http://www.w3.org/1999/xlink"><clipPath id="a"><path d="m0 0h237.6v36h-237.6z"/></clipPath><g clip-path="url(#a)" clip-rule="evenodd" fill="#0f0f0f" fill-rule="evenodd"><path d="m0 35.406h5.90112v-34.838251h-5.90112z"/><path d="m53.4852 35.943-23.973-23.2023v22.6652h-5.6743v-35.3757486l23.973 22.8182486v-22.281129h5.6743z"/><path d="m68.6783 26.7236c3.1773 2.5546 6.9804 4.0295 11.0642 4.0295 3.9723 0 6.7526-1.4195 6.7526-4.5392 0-2.7234-1.7594-3.802-4.8802-4.9932l-5.0494-1.8159c-4.653-1.7017-8.1702-4.199-8.1702-9.92947 0-6.12829 5.3323-9.47520793 11.745-9.47520793 3.9147 0 7.4898 1.02095793 10.2694 2.83643793v6.07177c-2.8933-2.21328-6.0707-3.74544-10.156-3.74544-3.5175 0-6.1286 1.36296-6.1286 4.1994 0 2.55241 1.6463 3.57441 4.5407 4.59501l5.6163 2.0427c5.4479 1.9861 7.9434 5.05 7.9434 10.0998 0 6.355-5.3892 9.8733-12.483 9.8733-4.6519 0-8.6238-1.3615-11.0642-3.0639z"/><path d="m105.518 35.406h5.901v-34.838251h-5.901z"/><path d="m142.786 30.1299c7.318 0 11.234-4.7113 11.234-12.1439 0-7.4894-3.916-12.19897-11.234-12.19897h-7.234v24.34287zm-13.136-29.562517h13.363c10.27 0 16.91 6.808687 16.91 17.418617 0 10.6103-6.64 17.4197-16.91 17.4197h-13.363z"/><path d="m194.448.567383v5.219647h-15.347v8.38297h13.759v5.1642h-13.759v10.7957h15.347v5.2758h-21.133v-34.838317z"/><path d="m214.577 16.3406h6.624c3.914 0 6.128-2.0988 6.128-5.3334 0-3.23419-2.214-5.33335-6.128-5.33335h-6.624zm0 4.9364v14.1289h-5.901v-34.838273h12.639c7.206 0 11.858 3.631333 11.858 10.439673 0 5.8442-2.595 9.1922-8.099 10.0429l12.526 14.3557h-6.695l-12.129-14.1289z"/></g></svg>