<svg fill="none" height="40" viewBox="0 0 233 40" width="233" xmlns="http://www.w3.org/2000/svg" xmlns:xlink="http://www.w3.org/1999/xlink"><clipPath id="a"><path d="m0 0h232.463v40h-232.463z"/></clipPath><g clip-path="url(#a)" fill="#1a5dad"><path d="m48.4749 24.2254h6.5464v2.3839h-9.2969v-13.1659h2.7505z"/><path d="m60.4101 26.866c-2.6222 0-4.9877-1.6135-4.9877-5.1343 0-3.5206 2.3655-5.1344 4.9877-5.1344 2.6221 0 4.9878 1.6138 4.9878 5.1344 0 3.5208-2.3657 5.1343-4.9878 5.1343zm0-8.105c-1.9804 0-2.3471 1.7237-2.3471 2.9707 0 1.2469.3667 2.9706 2.3471 2.9706s2.3473-1.7237 2.3473-2.9706c0-1.247-.3669-2.9707-2.3473-2.9707z"/><path d="m76.0124 26.6093h-2.5669v-5.9229c0-.7151-.0371-1.9254-1.6689-1.9254-1.1368 0-2.0167.7702-2.0167 2.2556v5.5927h-2.5675v-9.7552h2.4567v1.43h.0372c.3483-.5867 1.0816-1.6868 2.9337-1.6868 1.9072 0 3.3924 1.1185 3.3924 3.2642z"/><path d="m87.3422 16.854v9.2419c0 1.6872-.1281 4.4926-4.9325 4.4926-2.0173 0-4.1442-.8618-4.2543-2.934h2.7871c.1101.495.3119.9903 1.797.9903 1.3756 0 2.0353-.6604 2.0353-2.2371v-1.1736l-.0365-.0367c-.4221.7517-1.0638 1.467-2.6034 1.467-2.3477 0-4.1998-1.6321-4.1998-5.0426 0-3.3743 1.9071-5.0245 4.0526-5.0245 1.8155 0 2.5488 1.0636 2.8607 1.7054h.0365v-1.4487zm-4.7308 7.6467c1.742 0 2.1819-1.4854 2.1819-2.824 0-1.5768-.7698-2.8608-2.2005-2.8608-.9535 0-2.0167.6969-2.0167 2.971 0 1.2468.5137 2.7138 2.0353 2.7138z"/><path d="m96.6893 26.6093h-2.7512v-13.1659h2.7512z"/><path d="m104.571 19.8246c-.11-.6234-.33-1.2836-1.724-1.2836-1.393 0-1.577.5318-1.577.9536 0 1.5402 6.107.4218 6.107 4.0155 0 2.8424-2.751 3.3559-4.273 3.3559-2.218 0-4.6207-.7701-4.6943-3.374h2.6403c0 .825.514 1.4303 2.128 1.4303 1.32 0 1.631-.6418 1.631-1.0087 0-1.6319-6.0509-.4035-6.0509-4.0521 0-1.4305.8985-3.2642 3.9429-3.2642 1.907 0 4.18.4767 4.382 3.2273z"/><path d="m111.886 26.6093h-2.567v-13.1659h2.567z"/><path d="m122.244 24.7023c0 1.1549.257 1.4119.568 1.5219v.385h-2.769c-.146-.4585-.183-.605-.238-1.1552-.587.6053-1.412 1.412-3.154 1.412-1.467 0-2.971-.8253-2.971-2.8422 0-1.9072 1.211-2.8787 2.843-3.1173l2.31-.3483c.403-.0549.898-.2202.898-.7701 0-1.082-1.026-1.1371-1.686-1.1371-1.284 0-1.504.7885-1.577 1.357h-2.476c.294-2.9889 2.366-3.4107 4.364-3.4107 1.375 0 3.888.4218 3.888 2.8238zm-2.513-2.8425c-.256.2019-.678.3668-1.742.5318-.953.1654-1.741.4035-1.741 1.4671 0 .8985.696 1.1735 1.191 1.1735 1.138 0 2.292-.7333 2.292-1.9253z"/><path d="m133.355 26.6093h-2.567v-5.9229c0-.7151-.037-1.9254-1.669-1.9254-1.137 0-2.018.7702-2.018 2.2556v5.5927h-2.566v-9.7552h2.457v1.43h.036c.349-.5867 1.083-1.6868 2.935-1.6868 1.906 0 3.392 1.1185 3.392 3.2642z"/><path d="m144.648 26.6092h-2.512v-1.2286h-.037c-.623 1.1003-1.76 1.4854-2.824 1.4854-2.897 0-4.107-2.5671-4.107-5.2442 0-3.3743 1.907-5.0245 4.052-5.0245 1.651 0 2.421.8985 2.824 1.5219h.037v-4.6759h2.567zm-4.731-1.852c1.632 0 2.274-1.3571 2.274-2.8055 0-1.5586-.44-3.1359-2.2-3.1359-1.632 0-2.183 1.4489-2.183 2.9892 0 1.1555.459 2.9522 2.109 2.9522z"/><path d="m151.501 13.4434h6.656c3.503 0 4.144 2.5854 4.144 3.7222 0 1.4489-.733 2.6959-2.035 3.1357 1.082.4769 1.668.8804 1.668 3.3375 0 1.9253 0 2.402.588 2.6224v.3481h-3.045c-.182-.6234-.293-1.302-.293-2.6587 0-1.797-.11-2.4941-2.146-2.4941h-2.841v5.1528h-2.696zm5.923 5.7943c1.43 0 2.127-.4948 2.127-1.7968 0-.6968-.312-1.7239-1.925-1.7239h-3.429v3.5207z"/><path d="m172.441 24.7023c0 1.1549.257 1.4119.568 1.5219v.385h-2.768c-.148-.4585-.183-.605-.239-1.1552-.587.6053-1.412 1.412-3.154 1.412-1.467 0-2.971-.8253-2.971-2.8422 0-1.9072 1.211-2.8787 2.843-3.1173l2.31-.3483c.404-.0549.899-.2202.899-.7701 0-1.082-1.027-1.1371-1.687-1.1371-1.283 0-1.504.7885-1.577 1.357h-2.476c.294-2.9889 2.366-3.4107 4.364-3.4107 1.376 0 3.888.4218 3.888 2.8238zm-2.512-2.8425c-.257.2019-.678.3668-1.742.5318-.954.1654-1.742.4035-1.742 1.4671 0 .8985.697 1.1735 1.192 1.1735 1.136 0 2.292-.7333 2.292-1.9253z"/><path d="m177.373 16.8541v9.7552h-2.567v-9.7552zm0-1.1555h-2.567v-2.3836h2.567z"/><path d="m182.467 26.6093h-2.567v-13.1659h2.567z"/><path d="m189.484 13.4434h6.657c3.502 0 4.144 2.5854 4.144 3.7222 0 1.4489-.733 2.6959-2.036 3.1357 1.083.4769 1.669.8804 1.669 3.3375 0 1.9253 0 2.402.588 2.6224v.3481h-3.044c-.184-.6234-.294-1.302-.294-2.6587 0-1.797-.11-2.4941-2.146-2.4941h-2.841v5.1528h-2.697zm5.924 5.7943c1.43 0 2.127-.4948 2.127-1.7968 0-.6968-.312-1.7239-1.925-1.7239h-3.429v3.5207z"/><path d="m206.574 26.866c-2.622 0-4.987-1.6135-4.987-5.1343 0-3.5206 2.365-5.1344 4.987-5.1344s4.988 1.6138 4.988 5.1344c0 3.5208-2.366 5.1343-4.988 5.1343zm0-8.105c-1.981 0-2.347 1.7237-2.347 2.9707 0 1.2469.366 2.9706 2.347 2.9706 1.98 0 2.347-1.7237 2.347-2.9706 0-1.247-.367-2.9707-2.347-2.9707z"/><path d="m221.26 24.7023c0 1.1549.257 1.4119.569 1.5219v.385h-2.77c-.146-.4585-.183-.605-.238-1.1552-.587.6053-1.412 1.412-3.154 1.412-1.467 0-2.971-.8253-2.971-2.8422 0-1.9072 1.211-2.8787 2.843-3.1173l2.31-.3483c.403-.0549.899-.2202.899-.7701 0-1.082-1.027-1.1371-1.687-1.1371-1.284 0-1.504.7885-1.577 1.357h-2.476c.293-2.9889 2.365-3.4107 4.365-3.4107 1.375 0 3.887.4218 3.887 2.8238zm-2.512-2.8425c-.257.2019-.679.3668-1.742.5318-.954.1654-1.742.4035-1.742 1.4671 0 .8985.696 1.1735 1.191 1.1735 1.137 0 2.293-.7333 2.293-1.9253z"/><path d="m232.462 26.6092h-2.512v-1.2286h-.036c-.624 1.1003-1.761 1.4854-2.824 1.4854-2.898 0-4.108-2.5671-4.108-5.2442 0-3.3743 1.907-5.0245 4.053-5.0245 1.65 0 2.42.8985 2.824 1.5219h.036v-4.6759h2.567zm-4.731-1.852c1.633 0 2.275-1.3571 2.275-2.8055 0-1.5586-.44-3.1359-2.201-3.1359-1.632 0-2.182 1.4489-2.182 2.9892 0 1.1555.458 2.9522 2.108 2.9522z"/><path d="m23.627 16.7858-2.167-.1834v11.4352l-3.2297.5671-.0063-12.2859-2.7455-.2417v-4.5028l8.1485 1.4153zm6.1499 9.8049-1.9151.3304-.2254-1.6672-1.8667.2417-.2336 1.8337-2.4685.4351 2.4434-14.4207 2.3211.4003zm-2.482-4.1536-.5117-4.4035h-.1136l-.5192 4.4714zm-10.6742 17.5629c11.0458 0 19.9999-8.9539 19.9999-19.9999 0-11.04558-8.9541-19.99979101-19.9999-19.99979101-6.92689 0-13.03111 3.52122101-16.6207 8.87178101l5.54392.97265 1.52526 11.60766c.00557-.0202.11046-.0071.11046-.0071l1.67129-11.024 5.54877.9651v17.8932l-3.5006.6103v-7.689s.13-3.3115.0524-3.8784c0 0-.1516.0036-.1535-.0087l-2.08989 11.9658-3.47697.6103-2.55744-12.8894-.15277-.0111c-.0556.4665.18685 4.5118.18685 4.5118v8.8289l-2.286698.3998c3.634558 5.0109 9.535968 8.2701 16.199618 8.2701z"/></g></svg>