<svg fill="none" height="40" viewBox="0 0 114 40" width="114" xmlns="http://www.w3.org/2000/svg" xmlns:xlink="http://www.w3.org/1999/xlink"><clipPath id="a"><path d="m0 0h113.361v40h-113.361z"/></clipPath><g clip-path="url(#a)" fill="#000"><path d="m13.4274.0249023h-13.4689039v39.5766977h6.2572639v-16.1161h7.21164c6.4813 0 11.7593-5.278 11.7593-11.7594 0-6.44809-5.278-11.7011977-11.7593-11.7011977zm5.5021 11.7011977c0 3.1121-2.415 5.5519-5.5021 5.5519h-7.21164v-10.99584h7.21164c3.0373 0 5.5021 2.43983 5.5021 5.44394z"/><path d="m38.7303 12.1245c-7.6763 0-13.6846 5.9668-13.6846 13.5851 0 8.0249 6.2157 14.3153 14.1576 14.3153 4.1494 0 8.1826-1.7178 11.3527-4.8382l.3237-.3153-3.7677-4.5809-.3817.3734c-1.0207.9959-3.8008 3.3029-7.4772 3.3029-3.5269 0-6.5228-2.2821-7.6348-5.7344h20.8547v-.4979c-.0083-9.1951-5.6597-15.61-13.7427-15.61zm-7.1203 10.9461c.7801-3.2199 3.6016-5.4274 7.0622-5.4274 3.3444 0 6.2241 2.2489 7.054 5.4274z"/><path d="m62.6888 4.24902h-6.2573v25.52698c0 5.9668 3.7925 9.8257 9.6681 9.8257h5.029v-6.2573h-4.9294c-1.9752 0-3.5187-1.5435-3.5187-3.5186v-11.7096h8.5477v-5.5767h-8.5477v-8.29048z"/><path d="m95.9501 15.1951c-2.3485-1.9669-5.361-3.0706-8.4232-3.0706-7.7179 0-14 6.2324-14 13.8921 0 7.7179 6.2821 14 14 14 3.1452 0 6.1079-1.0871 8.473-3.0705v2.6556h5.4191v-27.0623h-5.4772v2.6557zm-.6722 10.8215c0 4.2739-3.4522 7.7428-7.6929 7.7428s-7.693-3.4772-7.693-7.7428c0-4.2406 3.4523-7.6929 7.693-7.6929s7.6929 3.4523 7.6929 7.6929z"/><path d="m113.361 2.10791h-6.257v37.48549h6.257z"/></g></svg>