<svg fill="none" height="65" viewBox="0 0 70 65" width="70" xmlns="http://www.w3.org/2000/svg"><g fill="#ee3a43"><path d="m34.7742.805647c-.8539.109136-1.8939.280063-2.3296.373153-.776.15487-2.096.43493-4.1929.86987-1.3979.27926-4.3951 1.19568-5.5908 1.69241-.512.20222-1.1026.43494-1.3201.49753-1.1796.37235-4.8453 2.22043-6.2897 3.16735-2.3296 1.55358-2.6706 1.80154-3.6496 2.64014-4.44091 3.8053-7.48547 8.4331-8.96041 13.6042-.68371 2.4074-.83858 3.6344-.82334 6.756 0 3.1834.15568 4.3486.68371 5.0476.93086 1.2109 1.64586.7447 1.64586-1.0721 0-3.3857.7455-7.5168 1.95722-10.8093 2.23568-6.0875 6.70866-11.119 12.51696-14.10099 2.4074-1.22697 3.1216-1.49099 5.87-2.20518.8699-.23272 1.4284-.20223 1.3666.07784-.0305.15487-1.2117.76074-3.0277 1.53753-5.017 2.1747-6.5385 3.1216-9.1008 5.6373-3.57178 3.494-5.62209 6.9109-6.9574 11.6005-.63716 2.2213-.82333 4.7683-.7142 9.6441.12358 5.1559.29451 6.7712.90037 8.6193.52803 1.6002 1.86334 4.4104 2.65618 5.5756.93085 1.3353 4.26995 4.6591 5.65255 5.606.1862.1244.8852.6211 1.5528 1.0874 2.5471 1.7702 4.985 3.0285 6.9735 3.5565 1.4597.4037 4.1463.9469 4.6583.9469.4975 0 .8081.3884.5441.699-.2175.2648-1.6154.3105-2.7958.0931-3.4474-.6364-5.9784-1.4597-8.7742-2.8263-3.0911-1.5223-6.4607-4.473-9.20916-8.0913-1.94197-2.5471-2.4387-2.9972-2.88889-2.6088-.86987.7142-.01604 3.4939 1.90988 6.2119 1.72451 2.4234 5.24977 5.5755 7.70367 6.8795 5.1246 2.7332 11.4609 3.8519 17.7033 3.1377 4.9697-.5906 9.3343-1.9099 13.8217-4.2242.979-.4975 1.3666-.7463 2.9202-1.7863.2488-.1709.7455-.5128 1.1339-.7768 1.0713-.7302 4.1151-3.7114 5.1398-5.0475 3.8984-5.1085 5.9945-9.6746 6.7408-14.6443.4189-2.7645.1548-9.4113-.4976-12.9679-.6981-3.7114-1.32-5.4038-2.9819-8.1065-1.1179-1.8016-1.3353-2.0808-2.9194-3.6649-3.494-3.49395-8.9764-6.61556-12.4238-7.09704-3.0133-.41969-3.3704-.49753-3.6962-.79204-.7303-.6837-.2488-1.13389 1.1026-1.02475 3.4169.27926 6.1501 1.14913 9.6753 3.10555 3.8671 2.12815 6.8796 4.45688 8.7124 6.74078 2.7172 3.3695 4.7988 9.0839 5.3573 14.6442.2801 2.7485.0931 8.8368-.3105 10.7932-.8699 4.1311-1.4445 5.9014-2.8263 8.6811-2.5936 5.2025-6.4294 9.0856-13.1541 13.2785-.8699.5593-1.1957.979-1.056 1.3666.0778.2022.2648.2327.9164.1557 1.5688-.1709 3.7098-1.3177 6.2897-3.1995 1.7277-1.2598 1.7342-1.3232 2.795-2.2212.845-.7142 4.6752-4.4104 5.8083-5.8701 2.283-2.9659 3.5252-5.3115 4.4577-8.4179 1.1796-4.0059 1.6772-8.4475 1.5215-13.7125-.0618-1.7077-.1709-3.3849-.2488-3.7267-.077-.3419-.2792-1.3201-.4654-2.1747-1.0408-4.8919-3.5405-10.1095-6.6156-13.8217-4.0845-4.92318-9.2869-7.71818-17.1608-9.193924-1.6458-.294506-7.7342-.387592-9.7066-.139629zm7.1596 12.641253c.3106.2023.5128.7303.6982 1.8329.0938.5898.3113 1.4131.4509 1.8481l.2649.7768 3.2451 1.1026c3.3544 1.1338 3.8198 1.32 6.212 2.4844 1.7397.8386 2.1586 1.2422 2.0029 1.9099-.1236.5593-.8538 1.0255-1.3666.8859-.1701-.0465-3.059-.016-6.3828.0778-5.6526.1397-12.2216.5433-14.7687.9157-.5906.093-1.8946.2648-2.8728.3884-1.8794.2327-3.7122.4814-7.4549 1.0095-1.2423.1709-2.7798.3884-3.4162.4654-.6371.0939-1.8176.2648-2.6096.4044-1.3201.2167-1.4902.2167-1.832-.016-.4197-.264-.4037-.264-.2801-.6051.2953-.7768 5.9014-3.9602 9.8463-5.6068.979-.4189 1.8794-.8073 1.9877-.9004.1092-.0778.8699-1.1491 1.6772-2.3761 1.0095-1.5223 1.6001-2.2517 1.8176-2.2983.1862-.0313 1.5993-.3266 3.1368-.6371 1.0858-.2186 2.1729-.4307 3.2613-.6364.264-.0465 1.3818-.2801 2.4844-.528 2.734-.6059 3.5878-.7142 3.8984-.4976zm-10.2186 13.4334c.0313.1557-.1092.5441-.3106.8546-.2175.3106-.5906.8851-.8386 1.2735-.6524.9943-1.5688 1.8634-1.9572 1.8634-.4494 0-.9004-.435-.9004-.8852 0-.9782 1.0713-2.2364 2.5623-2.9819 1.0095-.5273 1.3666-.5433 1.4445-.1236zm19.4117 2.3143c.2648.2648.2335.8699-.1236 1.8946-.3105.8547-.3105.9164-.0618 1.1957.1397.1709.4189.2953.6051.2953.4662 0 1.0873.5128.9325.7608-.2023.3266-1.3514.792-1.9886.792-.341 0-.8385-.1083-1.1331-.2488-.4814-.2327-.544-.2327-.979.0779-1.0095.7302-2.4074 1.2735-3.1521 1.2277-.3884-.016-.808.0458-.9316.1397-.979.7912-2.3456 1.1331-4.6905 1.1491-.8698 0-1.8938.0618-2.2982.1236-1.2583.2022-1.5376-.2945-.8073-1.4445.341-.5272 2.3296-2.36 3.7892-3.4939.2167-.1709.3571-.3258.3106-.3724-.0465-.0465-.5593.0001-1.1652.0779-.5898.077-1.304.1083-1.5993.0465-.6059-.1091-1.1178-.5745-1.1178-.9942 0-.5593.4188-.7921 1.4444-.7921.5272 0 1.4444-.1083 2.0495-.2327.5898-.1244 1.5062-.2327 2.003-.2327 1.1186 0 1.491.2632 1.491 1.04 0 .4815-.2167.7607-1.8794 2.454-1.0248 1.056-1.8168 1.9411-1.739 1.9877.264.1396 2.6241.2487 3.1377.1396l.5432-.1244-.0465-.8538c-.0321-.7455.0305-.9469.4967-1.6154.6829-1.0095 2.1121-2.1586 3.2147-2.5936.4655-.1861 1.3819-.3876 2.019-.4341.6364-.0626 1.2423-.1091 1.3353-.1244.0779-.016.2328.0466.3419.1549zm-28.0463.2953c.9469.3724 1.7702 1.0874 2.0808 1.8015.1244.2793.2167.9165.2167 1.4124 0 1.8023-1.3811 3.4947-3.555 4.3494-1.6466.6524-2.2525.7455-2.7492.4189-.2175-.1397-.4197-.2328-.435-.2015-.0313.0305-.1861.4342-.3731.9004-2.2357 5.7305-2.8568 6.8025-3.6336 6.1036-.2801-.2488-.3106-.4036-.2327-1.4444.1701-2.3144 1.7542-6.8178 3.3848-9.5976.4197-.6989.7615-1.3048.7615-1.32 0-.0313-.2327-.0161-.528.016-.4197.0457-.5746 0-.7142-.2648-.2327-.4349-.1091-.792.4815-1.3506 1.0865-1.0408 3.6954-1.4605 5.2955-.8233zm13.1846 1.8633c.4036.4037.3105.8852-.3724 1.8329-.5441.7455-.7615.9934-2.3913 2.6714l-1.1187 1.1491 1.7398.0153c.9629 0 2.6553.0465 3.7579.0778 1.4284.0466 2.2365 0 2.7645-.1557 1.3666-.3884 1.3506.451-.016 1.1187-1.0713.5433-2.2357.7142-5.5443.792-1.9411.0618-3.323.171-4.0372.3411-2.283.544-2.718.4662-2.718-.4815 0-.6516.6364-1.4284 3.0125-3.6488 2.1747-2.0191 2.3296-2.2213 1.6001-2.0038-.6989.2022-2.1899.1709-2.6714-.0465-.2166-.0931-.4349-.3571-.4975-.5594-.1701-.6829.3266-.9003 2.3143-1.04.963-.0626 2.0656-.1709 2.454-.2327 1.1491-.187 1.3826-.1717 1.7237.1701zm-7.4694.699c.3571.9317.0465 2.2517-1.15 4.7675-.4814 1.0095-.869 1.9419-.869 2.0968 0 .7142-.8386.8699-1.4132.2488-.3266-.3419-.3731-.5441-.3731-1.5063 0-1.0103.0626-1.2277.6058-2.2059.6524-1.1797 2.2205-3.494 2.5005-3.6802.2945-.2174.5585-.1243.6982.2793zm17.8589 6.1188c0 .2488-.1244.699-.264 1.0095-.1396.2953-.2166.5898-.1549.6364.0466.0626.6829-.0466 1.3979-.2167 1.6925-.4349 2.9812-.5906 3.1216-.3731.2015.3258-.979.8851-4.9544 2.3913-.5593.2175-.6372.3266-.9317 1.2278-.1869.5433-.4509 1.2727-.6058 1.6146-.1557.3418-.4502 1.1644-.6524 1.8328-.8234 2.5775-1.2118 3.0895-1.6154 2.1266-.2793-.6669-.1083-2.6707.3579-4.5027.4036-1.5536.3723-1.7093-.3266-1.7093-.4815 0-1.1491-.6821-1.0095-1.04.2022-.5898.3884-.6676 1.5062-.6676h1.1339l.7303-1.1492c.9003-1.4444 1.5375-2.019 1.9724-1.8015.1862.1091.2945.3258.2945.6211zm-13.8682 1.9572c.0465.1397-.0931.9935-.3258 1.9099-.4976 1.9725-.5128 2.267-.1244 2.1121.1396-.0626.4349-.1557.6211-.2022.5746-.1236.3884.5746-.2793 1.0095-.9469.6372-1.056.792-1.1652 1.5536-.0868.5362-.1904 1.0696-.3105 1.5993-.1083.4654-.2488 1.04-.2945 1.2735-.1709.7303-.8234 1.3666-1.4284 1.3666-.8859 0-1.1965-1.0095-.8394-2.7958.0618-.3876.1091-.7142.0778-.7455-.016-.0152-.7302.187-1.5688.4815l-1.5375.5128-.4815 1.942c-.5433 2.1739-.8073 2.7637-1.3971 3.2291-.528.4197-1.0256.4197-1.3979 0-.3731-.4189-.3731-2.1891 0-3.2917.4189-1.2278.3571-1.4445-.4036-1.5536-.8386-.1083-1.4605-.7303-1.2118-1.1957.2175-.4189.8386-.7142 1.9877-.9469.8386-.1709.9943-.2648 1.0721-.6059.1236-.528 1.6307-3.4169 2.2205-4.2707.8851-1.2888 1.5688-1.6772 1.7863-1.0248.1236.3876-.4037 2.5623-.9164 3.8824-.2328.5593-.4037 1.0713-.4037 1.1491 0 .1557.7455.0466 2.0495-.3105.8699-.2328.8699-.2328 1.2278-1.1957.5738-1.5375 1.4589-3.246 1.9251-3.7122.4815-.4655.963-.5433 1.1179-.1702zm7.8425 1.6612c.0465.2022-.0305 1.1338-.1396 2.0655-.1244.9317-.1862 2.1282-.1397 2.6562.0618.776.0313.9629-.1709 1.04-.4036.1557-1.1644-.4037-1.5528-1.1339-.2022-.3876-.3884-.7142-.4197-.7455-.0305-.0465-.4036.2953-.8072.7302-1.3201 1.4132-2.8111 1.9099-3.6344 1.227-.3258-.2792-.3876-.4502-.3724-1.2117 0-.512.1557-1.2735.3724-1.8633l.3731-.9943-.3571-.2793c-.4349-.3571-.2648-.6676.4655-.8233.7141-.1396 1.2117.0473 1.4604.5441.2633.4975.3106 1.6458.0771 2.2204-.2014.5593-.0305.5128.979-.2792.9512-.7383 1.766-1.6372 2.4074-2.6562.4494-.7142.6051-.8538 1.0552-.8538.2328 0 .3571.1091.4037.3571z"/><path d="m47.9756 31.1679c-.6051.2648-1.7855 1.4139-1.7855 1.7245 0 .2488.2793.1862 1.3353-.3106.7768-.3571 1.0095-.544 1.0874-.8851.0617-.2327.1709-.5288.264-.6371.2166-.2793-.1557-.2328-.9012.1091zm-27.6435.4494c-.0465.0457-.0778.2945-.0778.5432 0 .2488-.3106 1.3819-.699 2.531-.792 2.3296-.8072 2.454-.4196 2.2518.1404-.0779.7142-.3258 1.2582-.5746 1.227-.5593 2.4074-1.6611 2.6401-2.4692.1244-.4815.1092-.6837-.1396-1.1491-.1557-.3258-.4815-.6677-.7302-.7921-.4968-.2327-1.7085-.4502-1.8321-.3418zm-19.14768 7.6106c-.528026.5593-.683705 1.4757-.497532 2.811.295309 2.0808.776792 2.9973 1.864132 3.5405.83858.435 1.41235.451 1.7855.0466.24876-.264.24876-.4342.09308-1.8938-.09308-.886-.21666-1.9886-.26401-2.454-.17012-1.6306-.6829-2.3143-1.83204-2.4387-.63716-.077-.74629-.0465-1.14913.3884z"/></g></svg>