<svg fill="none" height="28" viewBox="0 0 245 28" width="245" xmlns="http://www.w3.org/2000/svg" xmlns:xlink="http://www.w3.org/1999/xlink"><clipPath id="a"><path d="m0 0h244.533v28h-244.533z"/></clipPath><g clip-path="url(#a)" fill="#000"><path d="m.266663.296265h5.925927c2.22222 0 3.7037.444444 5.03701 1.925925 1.3334 1.48148 1.7778 3.11111 1.7778 6.37037 0 2.37034-.1481 4.00004-1.1852 5.48144-1.037 1.7778-2.66665 2.963-5.62961 2.963h-1.92593v10.6667h-3.999997zm3.999997 13.037035h1.92593c3.25926 0 3.25926-1.9259 3.25926-4.59259 0-2.51852 0-4.74074-3.11111-4.74074h-2.07408z"/><path d="m15.9703.296265h6.3704c4.7407 0 6.963 2.666665 6.963 8.000005 0 3.11113-.8889 5.48143-3.4074 6.81483l4.2963 12.5926h-4.1482l-3.7037-11.7037h-2.3704v11.7037h-4zm4 12.148135h2.2223c2.6666 0 3.1111-1.4815 3.1111-4.29628 0-2.81482-.4445-4.2963-3.4074-4.2963h-2.0741v8.59258z"/><path d="m32.7111.296296h11.7037v3.703704h-7.8518v8h6.8148v3.7037h-6.8148v8h7.8518v4h-11.7037zm18.6667 3.703704h-4.5926v-3.703704h13.037v3.703704h-4.5926v23.7037h-4v-23.7037zm15.5555 0h-4.5925v-3.703704h13.037v3.703704h-4.5926v23.7037h-3.8519zm15.5556 12.1481-5.4815-15.851804h4.1482l3.1111 10.963004h.1481l3.2593-10.963004h4.1481l-5.3333 15.851804v11.5556h-4zm12.1482-15.851804h3.9999v23.407404h7.852v4h-11.7038v-27.407404zm14.3699 0h3.852v27.407404h-4v-27.407404zm10.371 3.703704h-4.593v-3.703704h13.037v3.703704h-4.592v23.7037h-4v-23.7037zm15.111 0h-4.593v-3.703704h13.037v3.703704h-4.592v23.7037h-4v-23.7037zm10.518-3.703704h4v23.407404h7.852v4h-11.703v-27.407404zm14.371 0h11.703v3.703704h-7.851v8h6.814v3.7037h-6.814v8h7.851v4h-11.703zm18.963 3.703704h-4.593v-3.703704h13.037v3.703704h-4.592v23.7037h-4v-23.7037zm10.666-3.703704h4v11.703704h4.889v-11.703704h4v27.407404h-4v-12.2963h-5.037v12.2963h-4v-27.407404zm16.593 0h4v27.407404h-4zm8.148 0h3.852l5.926 16.592604h.148v-16.592604h4v27.407404h-3.704l-6.074-16.4444h-.148v16.4444h-4zm17.334 6.370374c0-4.44445 3.407-6.66667 6.666-6.66667s6.667 2.22222 6.667 6.66667v1.33333h-4.148v-1.33333c0-1.92593-1.185-2.81482-2.667-2.81482-1.481 0-2.667.88889-2.667 2.81482v14.51853c0 1.9259 1.186 2.8148 2.667 2.8148 1.482 0 2.667-.8889 2.667-2.8148v-5.1852h-3.111v-3.4074h7.111v8.5926c0 4.4444-3.408 6.6666-6.667 6.6666s-6.667-2.2222-6.667-6.6666v-14.51853z"/></g></svg>