<svg fill="none" height="40" viewBox="0 0 100 40" width="100" xmlns="http://www.w3.org/2000/svg" xmlns:xlink="http://www.w3.org/1999/xlink"><linearGradient id="a" gradientUnits="userSpaceOnUse" x1="-2.56956" x2="8.49932" y1="36.8127" y2="25.3514"><stop offset="0" stop-color="#f94a73"/><stop offset="1" stop-color="#ff0058"/></linearGradient><linearGradient id="b" gradientUnits="userSpaceOnUse" x1="2.17896" x2="19.2712" y1="33.0619" y2="27.1765"><stop offset="0" stop-color="#f5a623"/><stop offset="1" stop-color="#ffc400"/></linearGradient><linearGradient id="c" gradientUnits="userSpaceOnUse" x1="5.68389" x2="22.9908" y1="20.8829" y2=".257041"><stop offset="0" stop-color="#00ccc1"/><stop offset="1" stop-color="#00e0d6"/></linearGradient><linearGradient id="d" gradientUnits="userSpaceOnUse" x1="-.008728" x2="17.169" y1="19.7828" y2="19.7828"><stop offset="0" stop-color="#0970ce"/><stop offset="1" stop-color="#00b2ff"/></linearGradient><clipPath id="e"><path d="m0 0h99.8378v40h-99.8378z"/></clipPath><g clip-path="url(#e)"><g fill="#223843"><path d="m44.9176 17.9914c0 1.676-.5239 2.9579-1.5718 3.8456s-2.5373 1.3316-4.4683 1.3316h-1.4165v5.5391h-3.3021v-15.5734h4.9744c1.8886 0 3.3248.4064 4.3086 1.2192.9838.8129 1.4757 2.0255 1.4757 3.6379zm-7.4566 2.4716h1.0864c1.015 0 1.7748-.2007 2.2794-.6022.5046-.4014.7567-.9854.7563-1.7521 0-.7738-.2112-1.3453-.6334-1.7147s-1.0845-.5541-1.9868-.5541h-1.5019z"/><path d="m56.6791 22.7318c0 1.9385-.5113 3.4546-1.5338 4.5482s-2.4464 1.6405-4.2718 1.6405c-1.1431 0-2.1515-.2496-3.025-.7488-.8728-.5003-1.5745-1.252-2.0136-2.1571-.4684-.9377-.7026-2.0313-.7026-3.281 0-1.9455.5077-3.4583 1.5231-4.5382s2.4427-1.6194 4.2818-1.6186c1.1435 0 2.1521.2485 3.0257.7456.8713.4946 1.573 1.2408 2.0129 2.1409.4688.9294.7033 2.0188.7033 3.2685zm-8.2366 0c0 1.1785.1934 2.0697.5803 2.6737.3869.6041 1.0183.9059 1.8944.9054.8669 0 1.4909-.3001 1.8719-.9004.3811-.6002.5712-1.4932.5704-2.6787 0-1.1785-.1918-2.0627-.5753-2.6526-.3836-.5899-1.0121-.8846-1.8857-.8842-.8661 0-1.4901.2931-1.872.8792-.3818.5861-.5757 1.472-.5815 2.6576z"/><path d="m64.2649 16.575c.3682-.0067.7361.0253 1.0976.0954l-.2452 3.0476c-.3137-.0771-.6361-.113-.9591-.1067-1.0362 0-1.8439.2662-2.4229.7987-.5791.5324-.8686 1.2781-.8686 2.237v6.0613h-3.2485v-11.91h2.4604l.4792 2.0024h.1598c.3574-.6539.8721-1.2085 1.4975-1.6136.6079-.4019 1.3211-.6149 2.0498-.6121z"/><path d="m72.1952 26.3322c.5682 0 1.25-.1248 2.0454-.3744v2.4179c-.8095.3628-1.8037.5439-2.9826.5435-1.3 0-2.2464-.3284-2.8392-.9852-.5928-.6569-.8892-1.6422-.8892-2.9559v-5.7406h-1.5549v-1.3728l1.7902-1.0876.936-2.514h2.0772v2.5352h3.334v2.4392h-3.334v5.7406c0 .4618.1296.8027.3888 1.0227.2591.2201.6019.3306 1.0283.3314z"/><path d="m74.7617 13.7202c0-1.0582.5894-1.5874 1.7683-1.5874s1.7684.5292 1.7684 1.5874c0 .5042-.1475.8965-.4424 1.1769s-.7369.4205-1.326.4205c-1.1789 0-1.7683-.5324-1.7683-1.5974zm3.3876 14.9876h-3.2491v-11.9094h3.2491z"/><path d="m86.832 19.2375h-2.8123v9.4702h-3.2491v-9.4702h-1.7896v-1.5656l1.7896-.8736v-.8736c0-1.3561.3328-2.3466.9984-2.9714s1.7343-.9368 3.206-.936c1.1232 0 2.1216.1664 2.9952.4992l-.8306 2.3861c-.6539-.2079-1.2571-.3119-1.8095-.3119-.4618 0-.7946.1368-.9984.4105-.2038.2738-.3078.6234-.312 1.049v.7456h2.8123z"/><path d="m87.4279 16.7983h3.5567l2.2464 6.7004c.2092.6717.3413 1.3651.3937 2.0666h.0624c.0721-.7043.2258-1.3978.458-2.0666l2.2052-6.7004h3.4874l-5.0386 13.4326c-.4618 1.2426-1.1203 2.1729-1.9756 2.7911-.8553.6181-1.8549.927-2.9989.9266-.5553.0005-1.109-.0602-1.651-.181v-2.5783c.4194.0956.8484.142 1.2785.1386.5491.009 1.0833-.1779 1.507-.5273.4297-.3511.7652-.8819 1.0064-1.5924l.1922-.5859z"/></g><path d="m-.00872803 16.9949v-.0305 22.1502l17.17772803-5.5447-17.17772803-5.4243z" fill="url(#a)"/><path d="m17.169 33.5698v-11.0608l-17.17772803 5.6365z" fill="url(#b)"/><path d="m15.1186 1.03141-15.12732803 4.96381v10.99898l17.17772803-5.5753v11.0901l4.5108-1.4807c2.1065-.6912 3.9409-2.03 5.2414-3.8254 1.3006-1.7954 2.001-3.9558 2.0012-6.1727 0-7.16152-6.9993-12.23141-13.8038-9.99879z" fill="url(#c)"/><path d="m-.00872803 16.9949 17.17772803-5.5753v11.0894l-17.17772803 5.6365z" fill="url(#d)"/></g></svg>