<svg fill="none" height="40" viewBox="0 0 122 40" width="122" xmlns="http://www.w3.org/2000/svg" xmlns:xlink="http://www.w3.org/1999/xlink"><clipPath id="a"><path d="m0 0h121.984v40h-121.984z"/></clipPath><g clip-path="url(#a)" fill="#ff5c0b"><path d="m19.936 18.6187c.7147.1013 1.3973.1546 2.0373.1546 2.544 0 5.264-.96 5.264-3.6533 0-2.048-1.5786-3.6533-3.6-3.6533-2.1813 0-3.7066 1.8986-3.7066 4.6186v2.5334zm-6.4587 17.8186h1.4454c.8 0 1.4506-.6506 1.4506-1.4506v-13.5094c-1.4186-.4-2.8853-.9333-4.3413-1.5946v15.104c-.0053.8.6453 1.4506 1.4453 1.4506zm2.7094 3.5627h-3.9787c-2.0693 0-3.74933-1.68-3.74933-3.7493v-18.24c-3.296-2-6.336-4.624-8.45867-7.7494l2.94933-2.00531c1.42934 2.10131 3.38667 3.97331 5.57334 5.53071.71466-8.18138 7.98403-14.517375 16.51203-13.7173747 7.296.6826667 13.1146 6.6399947 13.6373 13.9519747.6347 8.832-6.3787 16.2294-15.088 16.2294v-3.5627c6.8107 0 12.2613-5.92 11.488-12.88-.592-5.30668-4.8587-9.57868-10.1653-10.17068-6.9654-.77866-12.88 4.67734-12.88 11.48798v.8107c1.44.752 2.912 1.3653 4.3413 1.8347v-1.6747c0-4.7413 3.056-8.18668 7.2693-8.18668 3.952 0 7.1627 3.23738 7.1627 7.21598 0 4.3147-3.5467 7.216-8.832 7.216-.6453 0-1.328-.0426-2.0373-.128v14.0427c.0053 2.064-1.6747 3.744-3.744 3.744z"/><path d="m116.032 22.8694-2.416-6.992h-3.648l4.448 11.136c-.368.864-1.077 1.0986-1.749 1.0986-.758 0-1.403-.192-1.942-.496l-.8 2.6987c.864.4107 1.856.6453 2.912.6453 2.523 0 3.883-1.2106 4.923-3.9253l4.229-11.1573h-3.52zm-12.539.9066c-1.381 0-2.16-.7786-2.16-2.5653 0-1.8773.8-2.6773 2.182-2.6773 1.317 0 2.138.9066 2.138 2.5653-.005 1.728-.821 2.6773-2.16 2.6773zm-.24 7.3547c3.862 0 5.851-2.2453 5.851-6.0853v-9.1734h-3.131l-.085 1.6427c-.581-1.1893-1.664-1.856-3.216-1.856-2.8053 0-4.8106 2.0267-4.8106 5.504 0 3.472 1.984 5.504 4.5976 5.504 1.445 0 2.522-.6453 3.194-1.664v1.0347c0 1.664-.8 2.5013-2.224 2.5013-1.381 0-1.941-.4747-2.202-1.2747l-3.7336.624c.4746 1.84 2.3093 3.2427 5.7596 3.2427zm-17.9303-7.1413c-1.3813 0-2.16-.864-2.16-2.72s.8-2.7414 2.2027-2.7414c1.3173 0 2.1173.9707 2.1173 2.6774 0 1.8346-.8427 2.784-2.16 2.784zm2.16-6.6667c-.5813-1.0133-1.5307-1.664-3.0187-1.664-2.912 0-4.768 2.224-4.768 5.6533 0 3.344 1.856 5.568 4.6614 5.568 1.552 0 2.72-.7786 3.3866-1.984l.1067 1.7707h3.088v-15.1947h-3.4507v5.8507zm-14.416 1.0987c1.36 0 2.16.8853 2.16 2.848 0 1.9626-.8 2.848-2.16 2.848-1.3813 0-2.1813-.8854-2.1813-2.848 0-1.9627.8-2.848 2.1813-2.848zm0-2.7627c-3.3653 0-5.6533 2.0693-5.6533 5.6107 0 3.5413 2.288 5.6106 5.6533 5.6106 3.344 0 5.632-2.0693 5.632-5.6106 0-3.536-2.288-5.6107-5.632-5.6107zm-9.7333 11.008v-5.2427c0-1.5733 1.1626-2.3946 2.4586-2.3946.5814 0 .9494.0853 1.232.1706l.368-3.3653c-.2613-.1067-.624-.1707-.9706-.1707-1.7494 0-2.8267.992-3.3227 2.3307l-.1067-2.1173h-3.1093v10.7893zm-13.616-7.9627v-4.1653h2.7413c1.616 0 2.544.5813 2.544 2.0693 0 1.5094-.9067 2.0907-2.544 2.0907h-2.7413zm-3.4987-7.232v15.1947h3.4933v-4.896h3.3227c3.472 0 5.504-1.8773 5.504-5.1573 0-3.2374-2.0053-5.136-5.504-5.136h-6.816z"/><path d="m92.8587 26.6666h3.4507v-10.7893h-3.4507zm1.728-15.3653c-1.1627 0-1.92.736-1.92 1.856 0 1.1413.7573 1.8986 1.92 1.8986 1.1893 0 1.9627-.7573 1.9627-1.8986 0-1.12-.7787-1.856-1.9627-1.856z"/></g></svg>