<svg fill="none" height="60" viewBox="0 0 132 60" width="132" xmlns="http://www.w3.org/2000/svg"><path d="m111.837 9.26536v2.36734l5.143 3.2653c2.857 1.7959 5.469 3.4286 5.836 3.6327.368.204-1.918-2.2858-5.02-5.5919-3.143-3.3061-5.755-5.99998-5.837-5.99998-.081 0-.122 1.06123-.122 2.32654z" fill="#f37b2c"/><path d="m105.306 12.2041c0 2 .163 4.1224.367 4.6531.245.653 2.449 2.2857 6.409 4.8163 3.306 2.1224 6.163 3.8775 6.326 3.9592.163.0816 1.796-.8164 3.633-2 2.694-1.7143 3.224-2.2041 2.775-2.6123-.53-.5306-17.143-11.22447-18.694-12.0408-.775-.40816-.816-.32653-.816 3.2245z" fill="#f37b2c"/><path d="m108.245 23.4694c-1.184.8164-2.327 1.9592-2.572 2.5307-.204.5714-.326 2.653-.285 4.6122l.122 3.551 5.714-3.6326c3.143-1.9592 5.837-3.7551 6.041-3.9592.327-.3265-4.938-4.0816-6.245-4.4082-.326-.0816-1.591.4898-2.775 1.3061z" fill="#f37b2c"/><g fill="#0378be"><path d="m38.6122 24.5714c-1.3061 1.8367-.2449 4 1.9592 4 1.5919 0 2.6939-1.0612 2.6939-2.5306 0-2.2449-3.3878-3.3061-4.6531-1.4694z"/><path d="m5.30615 26.9388v2.0409h3.67347 3.67348v10.8163 10.8163h2.449 2.4489l.0817-10.7347.1224-10.6939 3.7959-.1224 3.7551-.1225v-2-2.0408h-10-9.99995z"/><path d="m46.4082 25.1837c-.1633.1225-.2857 5.9184-.2857 12.8572v12.5714h2.2449 2.2449l.0816-9.3061.1225-9.2653 5.102 9.2653 5.1021 9.3061h2.3673 2.3265v-12.8979-12.8572l-2.1224.1225-2.1633.1224-.2041 8.1225-.204 8.1224-4.4898-8.2041-4.4898-8.2449h-2.6939c-1.4694 0-2.8163.1225-2.9388.2857z"/><path d="m88.7347 25.4286c-.1225.3265-.1633 5.551-.0816 11.6734l.1224 11.1429 1.2653 1.1428c1.551 1.347 3.8368 1.8368 6.9388 1.4286l2.2041-.2449v-1.7959c0-1.7959-.0408-1.7959-1.0612-1.4286-1.6327.6531-2.5715.4898-3.6327-.6122-.9796-.9388-1.0204-1.1837-1.0204-6.7347v-5.7143h2.0408 2.0408v-1.6327-1.6326h-2.0408-2.0408v-3.0612-3.0612h-2.2449c-1.5102 0-2.3265.1632-2.4898.5306z"/><path d="m75.6327 30.6123c-3.1429.653-4.9796 2-6.4898 4.8979-.6123 1.1021-.7755 2.2857-.7755 5.3061 0 3.3878.1224 4.1225 1.0204 5.7143.653 1.1429 1.7551 2.2449 2.9796 3.0204 1.6734 1.0204 2.4898 1.2245 5.3469 1.3878 2.3674.1224 4.0817-.0408 5.6735-.4898l2.3265-.6939v-2.2041-2.204l-1.9183 1.0612c-2.4082 1.3469-6.2858 1.551-8.0001.4081-1.3877-.8979-2.7346-3.0204-2.7346-4.2857 0-.8979.0408-.8979 6.5714-.8979h6.6122l-.204-3.2245c-.2858-5.1021-2.2858-7.3878-6.8572-7.9184-1.0204-.1224-2.6122-.0408-3.551.1225zm4.1632 3.7551c.9796.8979 2.0001 3.6734 1.5103 4.1632-.1225.1633-2.0409.2449-4.2449.2449-3.796 0-4-.0408-4-.8571 0-1.347 1.1836-3.4694 2.1632-3.9592 1.5102-.7347 3.4286-.5714 4.5714.4082z"/><path d="m23.551 31.3062c-.1632.1224-.2857 4.5306-.2857 9.7959v9.5102h2.449 2.449v-6.7755-6.7347l1.5102-.6122c.9388-.4082 2.3673-.5715 3.8775-.4898l2.3674.1224v-2.6122-2.6123l-1.8368.2041c-1.3061.1633-2.4081.6531-3.7959 1.7551l-1.9183 1.5102-.1225-1.6735-.1224-1.6734h-2.1633c-1.1837 0-2.2857.1224-2.4082.2857z"/><path d="m38.3674 40.8164v9.7959h2.2449 2.2449v-9.7959-9.7959h-2.2449-2.2449z"/></g></svg>